<?xml version="1.0" encoding="UTF-8"?>
<svg xmlns="http://www.w3.org/2000/svg" width="520" height="120" viewBox="0 0 520 120" fill="none">
  <defs>
    <linearGradient id="g1" x1="0" y1="0" x2="120" y2="120" gradientUnits="userSpaceOnUse">
      <stop offset="0" stop-color="#22d3ee"/>
      <stop offset="0.45" stop-color="#3b82f6"/>
      <stop offset="1" stop-color="#a855f7"/>
    </linearGradient>
    <linearGradient id="g2" x1="20" y1="16" x2="100" y2="104" gradientUnits="userSpaceOnUse">
      <stop offset="0" stop-color="#0ea5e9"/>
      <stop offset="1" stop-color="#7c3aed"/>
    </linearGradient>
    <linearGradient id="gText" x1="140" y1="38" x2="500" y2="88" gradientUnits="userSpaceOnUse">
      <stop offset="0" stop-color="#7dd3fc"/>
      <stop offset="0.55" stop-color="#c7d2fe"/>
      <stop offset="1" stop-color="#f0abfc"/>
    </linearGradient>
    <filter id="soft" x="-20%" y="-20%" width="140%" height="140%" color-interpolation-filters="sRGB">
      <feGaussianBlur in="SourceAlpha" stdDeviation="2" result="blur"/>
      <feOffset dy="1" result="off"/>
      <feColorMatrix in="off" type="matrix" values="0 0 0 0 0  0 0 0 0 0  0 0 0 0 0  0 0 0 0.35 0"/>
      <feMerge>
        <feMergeNode/>
        <feMergeNode in="SourceGraphic"/>
      </feMerge>
    </filter>
  </defs>

  <!-- Icon -->
  <g filter="url(#soft)">
    <rect x="10" y="10" width="100" height="100" rx="24" fill="url(#g1)"/>
    <rect x="18" y="18" width="84" height="84" rx="20" fill="#0b1020" opacity="0.88"/>

    <!-- Stylized V -->
    <path d="M32 38 L50 92 C51.5 96.5 56 96.5 57.5 92 L74 43 C75 40 78 38 81 38 H92 L69 102 C66 110 56 110 53 102 L28 38 H32 Z" fill="url(#g2)"/>
    <path d="M88 40 H97 L79 92 C76.8 98.3 70.8 101.6 64.4 99.5 L66.6 93.1 C69.2 93.9 71.9 92.5 72.8 89.9 L88 40 Z" fill="#e5e7eb" opacity="0.35"/>

    <!-- Lens circle -->
    <circle cx="86" cy="42" r="16" fill="url(#g1)"/>
    <circle cx="86" cy="42" r="11" fill="#0b1020" opacity="0.75"/>
    <circle cx="90" cy="38" r="4" fill="#ffffff" opacity="0.65"/>
  </g>

  <!-- Wordmark -->
  <g>
    <text x="140" y="82" font-family="Inter, ui-sans-serif, system-ui, -apple-system, Segoe UI, Roboto, Arial, sans-serif" font-size="56" font-weight="800" letter-spacing="0.2">
      <tspan fill="url(#gText)">Vixogram</tspan>
    </text>
  </g>
</svg>
